<svg xmlns="http://www.w3.org/2000/svg" xmlns:xlink="http://www.w3.org/1999/xlink" width="500" zoomAndPan="magnify" viewBox="0 0 375 374.999991" height="500" preserveAspectRatio="xMidYMid meet" version="1.0"><defs><clipPath id="71742a8274"><path d="M 88.457031 4.929688 L 286 4.929688 L 286 309 L 88.457031 309 Z M 88.457031 4.929688 " clip-rule="nonzero"/></clipPath></defs><g clip-path="url(#71742a8274)"><path fill="#000000" d="M 231.988281 162.902344 C 236.421875 162.792969 240.996094 165.71875 240.996094 170.917969 L 240.996094 202.285156 C 240.996094 211.203125 234.675781 215.613281 225.128906 215.175781 C 219.792969 214.929688 212.9375 210.246094 213.066406 201.160156 C 213.316406 186.347656 214.953125 171.457031 227.757812 164.074219 C 229.039062 163.339844 230.511719 162.960938 231.988281 162.902344 Z M 142.28125 162.902344 C 143.757812 162.953125 145.238281 163.339844 146.519531 164.078125 C 159.324219 171.464844 160.960938 186.351562 161.207031 201.167969 C 161.339844 210.253906 154.511719 214.9375 149.175781 215.183594 C 139.597656 215.617188 133.28125 211.210938 133.28125 202.292969 L 133.28125 170.921875 C 133.277344 165.71875 137.851562 162.792969 142.28125 162.902344 Z M 187.136719 47.089844 C 198.839844 47.089844 208.335938 56.566406 208.335938 68.285156 C 208.335938 80 198.835938 89.464844 187.136719 89.464844 C 175.449219 89.464844 165.964844 80 165.964844 68.285156 C 165.964844 56.566406 175.449219 47.089844 187.136719 47.089844 Z M 96.824219 4.910156 C 92.167969 4.910156 90.117188 8.851562 91.410156 13.3125 L 95.617188 27.984375 C 96.910156 32.449219 99.042969 34.503906 103.6875 34.503906 L 132.519531 34.503906 L 145.832031 48.566406 L 129.503906 54.074219 C 127.125 54.535156 125.320312 56.417969 124.089844 58.972656 L 96.878906 60.304688 C 92.152344 60.523438 88.507812 64.527344 88.722656 69.257812 C 88.96875 73.996094 92.96875 77.636719 97.695312 77.390625 L 123.429688 76.128906 C 124.851562 80.046875 127.476562 82.5625 131.285156 82.894531 L 147.664062 85.164062 L 161.78125 97.644531 L 132.046875 114.226562 C 122.199219 118.304688 119.964844 126.578125 119.964844 136.378906 L 119.964844 261.820312 C 119.964844 278.847656 129.011719 303.945312 154.476562 308.929688 L 154.476562 261.570312 C 154.476562 243.582031 169.273438 228.804688 187.460938 229.078125 C 205.484375 229.351562 219.84375 243.941406 219.84375 261.570312 L 219.84375 308.929688 C 245.28125 303.921875 254.335938 278.847656 254.335938 261.820312 L 254.335938 136.382812 C 254.335938 126.582031 252.085938 118.316406 242.21875 114.230469 L 212.515625 97.652344 L 226.632812 85.167969 L 243.011719 82.898438 C 246.820312 82.566406 249.414062 80.050781 250.835938 76.136719 L 276.601562 77.398438 C 281.328125 77.644531 285.316406 74 285.542969 69.261719 C 285.789062 64.53125 282.152344 60.527344 277.421875 60.3125 L 250.195312 58.976562 C 248.96875 56.421875 247.160156 54.542969 244.761719 54.078125 L 228.453125 48.570312 L 241.777344 34.507812 L 270.609375 34.507812 C 275.257812 34.507812 277.386719 32.453125 278.667969 27.992188 L 282.855469 13.316406 C 284.148438 8.851562 282.113281 4.914062 277.441406 4.914062 L 245.644531 4.914062 C 240.996094 4.914062 238.617188 8.855469 237.273438 13.316406 L 233.386719 28.316406 L 216.511719 46.136719 C 209.570312 36.878906 198.679688 31.4375 187.136719 31.4375 C 175.59375 31.4375 164.707031 36.882812 157.757812 46.136719 L 140.90625 28.316406 L 137.03125 13.316406 C 135.6875 8.851562 133.308594 4.914062 128.628906 4.914062 L 96.824219 4.914062 Z M 96.824219 4.910156 " fill-opacity="1" fill-rule="nonzero"/></g><path fill="#000000" d="M 187.25 243.675781 C 176.878906 243.546875 169.035156 251.429688 169.035156 261.609375 L 169.035156 351.769531 C 169.035156 361.957031 176.996094 369.921875 187.136719 369.921875 C 197.3125 369.921875 205.238281 361.957031 205.238281 351.769531 L 205.238281 261.609375 C 205.238281 251.613281 197.800781 243.839844 187.25 243.675781 Z M 187.25 243.675781 " fill-opacity="1" fill-rule="nonzero"/></svg>