<svg xmlns="http://www.w3.org/2000/svg" xmlns:xlink="http://www.w3.org/1999/xlink" width="500" zoomAndPan="magnify" viewBox="0 0 375 374.999991" height="500" preserveAspectRatio="xMidYMid meet" version="1.0"><defs><clipPath id="247634730b"><path d="M 20.652344 63.621094 L 354.605469 63.621094 L 354.605469 311.101562 L 20.652344 311.101562 Z M 20.652344 63.621094 " clip-rule="nonzero"/></clipPath></defs><g clip-path="url(#247634730b)"><path fill="#000000" d="M 41.714844 162.949219 C 35.992188 182.714844 31.0625 190.835938 30.972656 215.148438 C 30.921875 236.390625 31.023438 257.640625 30.988281 278.914062 C 30.945312 307.335938 32.96875 311.007812 62.117188 311.101562 C 92.292969 311.207031 88.65625 299.933594 88.753906 273.351562 L 286.21875 273.171875 C 286.441406 298.789062 282.929688 311.207031 311.601562 311.101562 C 352.550781 311.007812 343.976562 303.472656 344.015625 216.589844 C 344.027344 193.152344 339.8125 182.269531 333.1875 162.9375 C 352.554688 162.273438 375.964844 117.753906 317.542969 126.855469 C 314.449219 117.238281 310.25 108.175781 306.199219 98.726562 C 301.121094 86.789062 300.753906 82.832031 292.558594 74.523438 C 285.609375 67.457031 275.691406 64.515625 264.527344 63.910156 L 259.480469 63.617188 L 109.011719 64.09375 C 81.132812 64.339844 75.257812 83.570312 67.988281 100.636719 C 65.140625 107.269531 60.222656 122.078125 56.222656 126.574219 C -0.0117188 118.117188 22.65625 162.21875 41.714844 162.949219 Z M 108.738281 234.597656 L 108.738281 205.1875 L 266.53125 205.1875 L 266.53125 234.597656 Z M 87.082031 224.578125 C 87.082031 234.273438 79.117188 242.15625 69.265625 242.164062 C 59.433594 242.164062 51.457031 234.28125 51.457031 224.578125 C 51.457031 214.875 59.433594 206.941406 69.265625 206.941406 C 79.121094 206.941406 87.082031 214.875 87.082031 224.578125 Z M 323.824219 224.578125 C 323.824219 234.273438 315.824219 242.15625 306.007812 242.164062 C 296.132812 242.164062 288.167969 234.28125 288.167969 224.578125 C 288.167969 214.875 296.132812 206.941406 306.007812 206.941406 C 315.824219 206.941406 323.824219 214.875 323.824219 224.578125 Z M 110.9375 78.589844 C 121.859375 75.789062 175.570312 77.65625 191.285156 77.652344 C 271.15625 77.652344 270.5625 69.53125 285.691406 105.96875 C 289.644531 115.539062 293.8125 125.320312 297.664062 134.746094 C 300.808594 142.578125 310.996094 158.863281 303.0625 164.691406 C 297.171875 169.007812 117.085938 166.667969 100.273438 166.667969 C 61.792969 166.667969 63.363281 168.242188 79.511719 129.359375 C 88.835938 106.816406 94.347656 82.851562 110.9375 78.589844 " fill-opacity="1" fill-rule="evenodd"/></g></svg>